<?xml version="1.0" standalone="no"?>
<!DOCTYPE svg PUBLIC "-//W3C//DTD SVG 20010904//EN"
 "http://www.w3.org/TR/2001/REC-SVG-20010904/DTD/svg10.dtd">
<svg version="1.0" xmlns="http://www.w3.org/2000/svg"
 width="1022.000000pt" height="430.000000pt" viewBox="0 0 1022.000000 430.000000"
 preserveAspectRatio="xMidYMid meet">
<metadata>
Created by potrace 1.16, written by Peter Selinger 2001-2019
</metadata>
<g transform="translate(0.000000,430.000000) scale(0.100000,-0.100000)"
fill="#000000" stroke="none">
<path d="M3488 4133 c-8 -10 -25 -42 -39 -70 -13 -29 -27 -53 -31 -53 -3 0 -9
-13 -13 -30 -4 -16 -10 -30 -15 -30 -5 0 -11 -13 -15 -30 -4 -16 -10 -30 -15
-30 -5 0 -11 -13 -15 -30 -4 -16 -10 -30 -14 -30 -4 0 -12 -16 -18 -35 l-11
-35 216 0 217 1 93 187 c51 103 92 190 92 195 0 4 -94 7 -208 7 -187 0 -210
-2 -224 -17z"/>
<path d="M6690 3623 c-30 -2 -59 -8 -65 -12 -5 -5 -29 -12 -53 -16 -24 -4 -56
-13 -70 -21 -15 -8 -35 -14 -44 -14 -10 0 -18 -4 -18 -9 0 -5 -13 -12 -30 -16
-16 -4 -30 -10 -30 -15 0 -4 -10 -11 -22 -14 -29 -8 -73 -44 -157 -127 -75
-75 -96 -101 -119 -146 -9 -18 -19 -33 -23 -33 -4 0 -10 -13 -14 -30 -4 -16
-11 -30 -16 -30 -5 0 -9 -9 -9 -20 0 -11 -7 -20 -15 -20 -10 0 -15 10 -15 28
-1 93 -126 310 -201 345 -7 4 -27 16 -44 27 -16 11 -37 22 -45 26 -8 3 -31 12
-50 20 -114 45 -258 55 -794 52 l-431 -3 -3 -782 c-1 -431 -5 -783 -10 -783
-4 0 -14 17 -23 38 -9 20 -24 54 -33 75 -9 21 -16 44 -16 52 0 7 -3 15 -7 17
-7 3 -48 95 -77 173 -6 17 -13 32 -16 35 -3 3 -16 32 -29 65 -24 64 -44 111
-66 160 -27 61 -44 101 -60 140 -9 22 -22 54 -30 70 -7 17 -18 41 -23 55 -32
75 -54 127 -62 145 -33 76 -50 119 -50 130 0 8 -3 15 -7 17 -9 4 -73 152 -80
186 -3 12 -9 22 -13 22 -4 0 -11 12 -14 28 -4 15 -13 41 -21 57 -7 17 -21 47
-30 68 l-16 37 -254 0 -254 0 -16 -37 c-9 -21 -23 -53 -30 -71 -8 -18 -21 -47
-28 -65 -8 -17 -23 -52 -33 -77 -9 -25 -26 -64 -36 -87 -10 -23 -18 -47 -18
-52 0 -6 -4 -11 -10 -11 -5 0 -10 -7 -10 -16 0 -15 -10 -42 -45 -119 -7 -16
-21 -48 -30 -70 -9 -22 -23 -53 -30 -70 -8 -16 -17 -42 -21 -57 -3 -16 -10
-28 -15 -28 -5 0 -9 -5 -9 -11 0 -6 -6 -25 -14 -42 -8 -18 -25 -59 -37 -92
-13 -33 -27 -61 -31 -63 -5 -2 -8 -9 -8 -17 0 -11 -19 -60 -56 -142 -8 -17
-14 -36 -14 -42 0 -6 -4 -11 -10 -11 -5 0 -10 -7 -10 -16 0 -15 -10 -42 -45
-119 -7 -16 -21 -48 -30 -70 -9 -22 -23 -53 -30 -70 -8 -16 -17 -42 -21 -57
-3 -16 -10 -28 -15 -28 -5 0 -9 -9 -9 -21 0 -11 -4 -17 -10 -14 -7 4 -10 278
-10 791 l0 784 -379 0 c-209 0 -386 -3 -395 -6 -9 -3 -16 -16 -16 -29 0 -12
-7 -47 -16 -76 -33 -117 -44 -155 -50 -189 -3 -19 -10 -39 -14 -45 -4 -5 -11
-30 -15 -55 -4 -25 -10 -49 -14 -55 -3 -5 -11 -32 -17 -60 -7 -27 -19 -77 -28
-110 -9 -33 -21 -78 -27 -100 -5 -22 -12 -47 -16 -55 -4 -8 -12 -37 -19 -65
-6 -27 -19 -77 -29 -110 -9 -33 -20 -80 -26 -105 -5 -25 -14 -53 -19 -62 -6
-10 -10 -25 -10 -34 0 -8 -5 -24 -11 -35 -15 -29 -36 -8 -44 44 -4 23 -11 47
-15 52 -5 6 -13 33 -19 60 -14 69 -32 137 -41 155 -4 9 -11 36 -15 60 -4 24
-11 51 -16 60 -4 8 -13 35 -18 60 -6 25 -17 72 -26 105 -10 33 -22 83 -29 112
-6 28 -15 55 -19 59 -3 4 -10 29 -13 56 -4 27 -10 51 -15 54 -5 2 -11 27 -15
55 -4 27 -10 52 -15 54 -4 3 -11 27 -15 53 -3 26 -10 52 -14 57 -4 6 -10 26
-14 47 -4 20 -14 39 -22 42 -9 3 -184 6 -390 6 l-374 0 0 -245 0 -244 142 -3
142 -3 -142 -141 -142 -142 0 -441 0 -441 235 0 235 0 0 586 c0 551 1 585 17
582 10 -2 19 -12 21 -23 2 -11 7 -29 12 -40 5 -11 14 -38 19 -60 23 -96 33
-131 40 -145 5 -9 12 -36 16 -60 4 -25 11 -49 15 -55 4 -5 12 -30 18 -55 22
-94 34 -136 42 -152 6 -9 13 -36 16 -60 4 -24 10 -48 15 -53 4 -6 11 -31 15
-55 4 -25 10 -47 14 -50 4 -3 12 -27 18 -55 16 -74 33 -138 42 -155 4 -9 11
-31 15 -50 3 -19 12 -50 18 -67 l11 -33 282 0 c230 0 283 3 287 14 3 7 9 34
12 60 4 25 11 46 15 46 4 0 10 22 14 50 4 27 10 52 15 54 5 3 11 28 15 56 4
27 10 50 14 50 4 0 13 24 19 53 17 81 33 140 42 162 9 19 21 62 42 150 5 22
13 49 18 60 9 19 21 62 42 150 5 22 13 49 18 60 10 21 26 81 43 158 8 35 15
47 29 47 18 0 19 -21 19 -585 l0 -585 473 0 472 0 13 27 c6 15 12 31 12 36 0
8 34 90 49 117 7 13 62 15 380 18 399 2 391 3 405 -48 4 -14 14 -38 21 -55 8
-16 20 -45 27 -63 l13 -32 472 0 473 0 0 210 0 210 237 -2 237 -3 82 -160 c46
-88 93 -181 106 -207 l23 -48 237 0 c199 0 238 2 238 14 0 8 -4 16 -8 18 -5 2
-22 30 -39 63 -27 54 -101 196 -194 372 l-33 61 67 67 c37 37 67 73 67 81 0 8
4 14 8 14 4 0 14 15 21 33 l14 32 8 -45 c14 -77 35 -164 47 -193 7 -16 12 -34
12 -42 0 -8 4 -16 9 -20 5 -3 12 -19 16 -35 4 -17 10 -30 14 -30 4 0 14 -15
23 -32 22 -45 43 -71 118 -147 73 -73 121 -112 156 -124 13 -5 24 -12 24 -17
0 -5 14 -11 30 -15 17 -4 30 -10 30 -14 0 -7 43 -21 145 -47 183 -47 493 -36
622 22 17 8 35 14 40 14 13 0 70 31 135 73 65 42 142 117 184 179 16 24 32 45
36 48 3 3 10 18 13 33 4 15 11 27 16 27 5 0 9 8 9 18 0 9 7 29 14 44 8 16 18
48 22 73 3 25 10 48 15 51 5 3 9 18 9 35 l0 29 -227 0 c-126 0 -233 -4 -239
-8 -6 -4 -14 -19 -18 -34 -3 -16 -11 -28 -16 -28 -6 0 -10 -6 -10 -14 0 -19
-85 -106 -104 -106 -9 0 -16 -4 -16 -8 0 -5 -28 -17 -62 -27 -69 -20 -248 -25
-271 -7 -6 5 -29 12 -49 16 -21 4 -38 11 -38 16 0 6 -5 10 -11 10 -13 0 -86
56 -111 85 -10 11 -21 30 -24 43 -3 12 -9 22 -13 22 -4 0 -16 28 -27 63 -27
87 -27 261 1 332 49 128 111 191 240 241 62 24 254 27 301 5 126 -59 154 -82
202 -171 l29 -55 231 -3 232 -2 0 34 c0 19 -4 38 -10 41 -5 3 -10 15 -10 26 0
23 -40 142 -50 149 -4 3 -11 16 -15 30 -4 14 -10 27 -14 30 -9 7 -51 68 -51
74 0 9 -95 100 -136 131 -46 35 -70 51 -104 67 -14 7 -27 15 -30 18 -7 8 -143
50 -160 50 -9 0 -21 5 -26 10 -11 11 -309 21 -404 13z m-1262 -470 c50 -23 66
-40 85 -98 21 -60 21 -97 2 -153 -18 -50 -37 -72 -85 -98 -31 -16 -65 -19
-287 -22 l-253 -4 0 196 0 196 251 0 c214 0 256 -2 287 -17z m-1915 -156 c9
-23 17 -48 17 -55 0 -6 4 -12 9 -12 5 0 12 -14 16 -31 4 -17 13 -42 21 -57 8
-15 14 -35 14 -44 0 -10 4 -18 9 -18 5 0 12 -12 15 -27 4 -16 13 -41 21 -58 7
-16 21 -48 30 -70 9 -22 20 -48 25 -57 6 -10 10 -27 10 -38 0 -19 -6 -20 -220
-20 -121 0 -220 2 -220 6 0 3 9 26 21 52 32 75 36 84 61 147 12 33 26 62 31
63 4 2 7 14 7 26 0 12 6 30 14 41 7 11 17 35 21 53 3 17 11 32 16 32 5 0 9 7
9 15 0 24 34 95 45 95 5 0 18 -19 28 -43z"/>
<path d="M8970 3620 c-78 -12 -150 -29 -187 -46 -17 -8 -38 -14 -47 -14 -9 0
-16 -4 -16 -9 0 -5 -13 -12 -30 -16 -16 -4 -30 -10 -30 -15 0 -4 -10 -11 -22
-14 -29 -8 -74 -44 -157 -127 -74 -75 -77 -78 -111 -134 -13 -22 -27 -42 -31
-45 -4 -3 -11 -18 -14 -33 -4 -15 -11 -27 -16 -27 -5 0 -9 -9 -9 -21 0 -12 -7
-35 -14 -52 -29 -63 -40 -143 -39 -302 0 -156 10 -235 41 -308 7 -16 12 -34
12 -42 0 -8 4 -16 9 -19 5 -3 12 -18 16 -33 3 -15 10 -30 13 -33 10 -7 52 -68
52 -75 0 -13 107 -127 160 -170 14 -11 43 -31 65 -45 22 -13 42 -27 45 -31 3
-4 18 -11 33 -14 15 -4 30 -11 33 -16 3 -5 12 -9 21 -9 8 0 29 -6 46 -14 127
-58 441 -69 622 -22 102 26 145 40 145 47 0 4 14 10 30 14 17 4 30 11 30 16 0
5 6 9 13 9 19 0 93 54 156 114 115 110 200 256 232 401 39 178 26 430 -28 555
-31 72 -79 164 -98 189 -26 32 -163 170 -196 196 -58 46 -243 125 -292 125
-13 0 -28 5 -33 10 -14 14 -330 21 -404 10z m314 -440 c5 -5 19 -10 29 -10 63
0 217 -155 217 -218 0 -11 6 -22 13 -24 18 -7 17 -284 -2 -324 -73 -158 -123
-207 -251 -248 -76 -25 -216 -25 -298 -1 -34 10 -62 22 -62 26 0 4 -11 10 -25
13 -32 8 -113 89 -121 121 -3 14 -9 25 -13 25 -4 0 -16 28 -27 63 -27 87 -27
262 1 332 57 149 149 227 305 259 41 8 222 -2 234 -14z"/>
<path d="M7743 3593 c-10 -3 -13 -62 -13 -244 l0 -238 146 -3 146 -3 -146
-148 -146 -147 0 -435 0 -435 240 0 240 0 0 830 0 830 -227 -1 c-126 0 -234
-3 -240 -6z"/>
<path d="M5720 1481 c-8 -5 -34 -12 -58 -16 -24 -4 -56 -13 -70 -21 -15 -8
-33 -14 -39 -14 -7 0 -13 -4 -13 -9 0 -5 -11 -12 -24 -15 -52 -13 -199 -177
-221 -246 -4 -14 -11 -27 -15 -30 -17 -12 -33 -124 -34 -230 0 -127 13 -189
60 -284 60 -122 207 -248 316 -271 18 -4 39 -12 47 -19 20 -16 363 -15 382 1
8 6 31 14 52 18 20 4 37 11 37 15 0 5 14 11 30 15 17 4 30 11 30 16 0 5 6 9
13 9 8 0 22 9 32 20 10 11 22 20 27 20 12 0 61 54 96 105 15 22 30 42 34 45 3
3 10 18 13 33 4 15 11 27 15 27 4 0 11 20 14 45 4 24 11 47 17 50 5 4 9 34 9
67 0 34 3 58 8 54 4 -4 9 -125 12 -269 l5 -262 160 0 160 0 5 379 c4 312 7
376 18 363 12 -14 82 -148 211 -402 31 -60 59 -112 63 -115 3 -3 10 -18 13
-33 4 -15 11 -27 15 -27 4 0 11 -12 15 -27 3 -15 10 -30 13 -33 4 -3 19 -27
34 -55 l27 -50 370 -3 370 -2 21 47 c46 104 9 93 300 93 l258 0 12 -33 c6 -17
20 -48 29 -67 l17 -35 159 -3 c87 -1 162 1 166 5 4 5 -1 26 -11 48 -30 62 -27
63 34 10 18 -16 79 -44 111 -51 17 -4 36 -12 44 -18 9 -7 85 -11 225 -11 173
0 222 3 271 18 134 40 220 101 268 191 19 36 22 56 22 169 0 83 -4 130 -11
135 -6 4 -15 17 -18 30 -10 30 -64 83 -107 104 -108 53 -160 64 -374 78 -134
9 -191 22 -207 44 -4 6 -8 29 -8 51 0 30 6 46 23 60 20 18 37 20 162 20 130 0
142 -2 172 -23 18 -12 38 -38 44 -57 l13 -35 154 0 154 0 -5 33 c-11 65 -30
142 -37 147 -4 3 -10 14 -14 25 -12 39 -82 103 -136 125 -14 6 -34 14 -45 19
-73 32 -156 42 -306 38 -196 -6 -250 -17 -368 -75 -43 -22 -108 -95 -116 -133
-4 -16 -11 -31 -16 -34 -12 -8 -12 -222 0 -230 5 -3 12 -19 16 -35 4 -17 11
-30 16 -30 5 0 9 -6 9 -13 0 -20 79 -87 120 -103 8 -3 31 -12 50 -20 41 -17
158 -32 325 -43 154 -10 175 -21 175 -95 0 -58 -13 -72 -90 -93 -132 -36 -302
1 -337 74 l-15 33 -149 0 -149 0 -1 -32 c-1 -22 -3 -26 -6 -13 -3 11 -12 29
-19 40 -8 11 -14 27 -14 37 0 10 -4 18 -9 18 -5 0 -12 12 -15 28 -4 15 -13 41
-21 57 -7 17 -21 48 -30 70 -9 22 -23 55 -31 72 -19 42 -38 88 -59 138 -9 22
-20 49 -25 60 -5 11 -18 41 -29 67 -12 26 -21 54 -21 62 0 9 -4 16 -10 16 -5
0 -10 6 -10 13 0 6 -6 24 -14 39 -8 14 -19 42 -26 62 l-12 36 -177 0 c-200 0
-178 9 -216 -85 -21 -50 -40 -96 -59 -138 -8 -17 -22 -50 -31 -72 -9 -22 -23
-53 -30 -70 -8 -16 -17 -42 -21 -57 -3 -16 -10 -28 -15 -28 -5 0 -9 -7 -9 -16
0 -9 -6 -28 -14 -42 -8 -15 -25 -54 -38 -87 -13 -33 -26 -61 -30 -63 -5 -2 -8
-9 -8 -17 0 -7 -9 -34 -21 -61 -31 -74 -49 -116 -61 -144 -54 -131 -73 -170
-80 -170 -5 0 -8 236 -8 525 l0 525 -77 0 c-43 0 -115 3 -160 7 l-83 6 0 -382
c0 -302 -3 -382 -12 -379 -14 4 -37 48 -153 275 -38 76 -73 140 -77 143 -3 3
-10 18 -13 33 -4 15 -11 27 -15 27 -4 0 -11 12 -15 27 -3 15 -10 30 -14 33 -3
3 -26 44 -50 92 -69 138 -48 129 -284 126 l-202 -3 0 -165 0 -165 88 -5 88 -5
-100 -99 -101 -99 0 49 c0 133 -89 294 -220 399 -37 30 -148 82 -205 96 -60
15 -304 23 -325 10z m268 -309 c2 -7 10 -12 17 -12 26 0 82 -59 109 -114 35
-72 38 -211 5 -284 -25 -55 -100 -130 -138 -138 -14 -2 -42 -9 -62 -14 -49
-13 -78 -12 -143 4 -91 24 -143 66 -179 145 -17 37 -21 65 -21 141 0 109 19
162 80 221 58 56 103 69 223 66 71 -2 106 -7 109 -15z m2322 -127 c14 -32 45
-107 64 -155 20 -49 44 -106 57 -131 4 -9 5 -20 2 -23 -4 -3 -71 -6 -149 -6
l-143 0 10 33 c5 17 14 43 20 57 21 46 37 85 58 140 43 108 63 142 69 119 2
-8 7 -23 12 -34z"/>
<path d="M3433 1450 c-3 -11 -9 -20 -14 -20 -5 0 -9 -6 -9 -14 0 -12 -16 -54
-50 -131 -8 -18 -30 -70 -62 -145 -5 -14 -16 -38 -23 -55 -8 -16 -21 -48 -30
-70 -9 -22 -23 -53 -30 -70 -8 -16 -17 -42 -21 -57 -3 -16 -10 -28 -14 -28 -4
0 -10 -10 -13 -22 -7 -34 -71 -182 -79 -186 -5 -2 -8 -10 -8 -17 0 -8 -7 -31
-16 -52 -9 -21 -25 -58 -36 -83 -11 -25 -23 -53 -29 -62 -5 -10 -9 -26 -9 -35
0 -15 -2 -16 -10 -3 -6 9 -10 217 -10 538 l0 522 -263 0 -262 0 -12 -27 c-6
-16 -15 -46 -19 -68 -4 -22 -9 -44 -13 -50 -3 -5 -11 -32 -17 -60 -7 -27 -19
-77 -28 -110 -9 -33 -21 -78 -27 -100 -5 -22 -12 -47 -16 -55 -4 -8 -12 -37
-19 -65 -6 -27 -20 -77 -29 -110 -9 -33 -21 -84 -27 -112 -15 -73 -41 -73 -56
0 -6 28 -18 79 -27 112 -9 33 -23 83 -29 110 -7 28 -15 57 -19 65 -4 8 -11 33
-16 55 -6 22 -18 67 -27 100 -9 33 -21 83 -28 110 -6 28 -14 55 -17 60 -4 6
-9 28 -13 50 -4 22 -13 52 -19 68 l-12 27 -262 0 -263 0 0 -165 0 -164 87 -3
86 -3 -86 -87 -87 -87 0 -270 c0 -169 -4 -272 -10 -276 -6 -3 -10 3 -10 14 0
12 -4 21 -10 21 -5 0 -10 5 -10 11 0 6 -6 25 -14 42 -37 82 -56 131 -56 142 0
8 -3 15 -7 17 -5 2 -19 30 -32 63 -12 33 -29 74 -37 92 -8 17 -14 36 -14 42 0
6 -4 11 -9 11 -5 0 -12 12 -15 28 -4 15 -13 41 -21 57 -7 17 -21 48 -30 70 -9
22 -23 55 -31 72 -8 18 -21 47 -28 65 -48 114 -75 178 -92 215 -8 17 -14 38
-14 47 0 9 -4 16 -10 16 -5 0 -10 7 -10 15 0 13 -27 15 -185 15 -163 0 -185
-2 -185 -16 0 -15 -10 -42 -45 -119 -7 -16 -21 -48 -30 -70 -21 -51 -41 -97
-59 -138 -8 -17 -22 -50 -31 -72 -9 -22 -23 -53 -30 -70 -8 -16 -17 -42 -21
-57 -3 -16 -10 -28 -14 -28 -4 0 -10 -10 -13 -22 -7 -34 -71 -182 -79 -186 -5
-2 -8 -10 -8 -17 0 -13 -9 -38 -45 -120 -8 -16 -21 -48 -30 -70 -9 -22 -23
-53 -30 -70 -8 -16 -16 -40 -20 -52 l-6 -23 165 0 166 0 19 43 c10 23 23 54
29 70 l12 27 257 0 258 0 19 -43 c10 -23 24 -53 31 -67 l14 -25 318 0 318 0 3
398 c1 218 6 397 10 397 12 0 30 -38 41 -85 24 -98 33 -131 41 -147 6 -9 13
-36 16 -60 4 -24 10 -48 15 -53 4 -6 11 -31 15 -55 4 -25 10 -49 14 -55 4 -5
12 -30 18 -55 20 -85 34 -135 42 -151 5 -9 12 -34 16 -55 14 -78 3 -74 214
-74 140 0 191 3 197 13 4 6 13 32 20 57 6 25 18 70 26 100 9 30 21 75 27 100
6 25 15 54 20 65 7 20 22 75 41 150 5 22 13 49 18 60 8 19 20 61 42 150 13 51
32 95 41 95 4 0 9 -179 10 -397 l3 -398 318 0 318 0 14 25 c7 14 21 44 31 67
l19 43 258 0 257 0 12 -27 c6 -16 19 -47 30 -71 l18 -42 658 2 657 3 0 140 0
140 -299 5 -299 5 93 85 c50 47 111 103 133 125 23 23 87 82 142 132 55 50
120 110 145 133 25 23 54 48 65 56 18 13 20 26 20 162 l0 147 -475 3 c-261 1
-485 0 -498 -3 -22 -5 -23 -7 -20 -143 l3 -137 280 -3 c154 -1 286 -4 294 -7
10 -4 7 -11 -11 -28 -123 -111 -207 -188 -240 -219 -22 -21 -41 -38 -43 -38
-2 0 -32 -28 -67 -63 -35 -34 -101 -95 -146 -135 l-82 -74 0 -88 c0 -49 -4
-92 -10 -95 -5 -3 -10 3 -10 14 0 10 -3 21 -7 23 -7 3 -48 95 -77 173 -6 17
-13 32 -16 35 -3 3 -16 32 -29 65 -27 71 -47 117 -68 165 -17 35 -28 62 -58
135 -9 22 -23 54 -30 70 -35 77 -45 104 -45 119 0 9 -4 16 -10 16 -5 0 -10 5
-10 11 0 6 -6 25 -14 42 -37 82 -56 131 -56 142 0 22 -26 25 -197 25 -156 0
-165 -1 -170 -20z m-2603 -395 c0 -7 7 -26 15 -41 8 -16 15 -36 15 -46 0 -9 3
-18 8 -20 4 -1 18 -30 31 -63 12 -33 29 -74 37 -92 28 -63 29 -63 -131 -63
-80 0 -145 2 -145 4 0 6 39 102 66 161 7 17 16 42 20 58 3 15 10 27 15 27 5 0
9 7 9 15 0 8 8 33 17 54 13 31 20 37 30 29 7 -6 13 -16 13 -23z m2820 -57 c0
-10 4 -18 9 -18 5 0 12 -12 15 -27 4 -16 13 -41 20 -58 27 -59 66 -155 66
-161 0 -2 -65 -4 -145 -4 -173 0 -166 -9 -100 135 8 17 17 42 21 58 3 15 10
27 14 27 4 0 10 10 13 23 7 29 30 88 41 106 6 10 13 4 27 -25 10 -22 18 -47
19 -56z"/>
</g>
</svg>
