<svg version="1.1" id="Layer_1" xmlns="http://www.w3.org/2000/svg" xmlns:xlink="http://www.w3.org/1999/xlink" x="0px" y="0px"
	 width="100%" viewBox="0 0 1022 430" enable-background="new 0 0 1022 430" xml:space="preserve">

<path fill="#560B03" opacity="1.000000" stroke="none" 
	d="
M544.616089,71.579994 
	C560.655945,73.537575 575.084229,77.940994 586.312622,89.741219 
	C593.924072,97.740234 597.869019,107.495720 600.057434,118.114662 
	C600.307861,119.329681 599.644226,121.232880 601.321289,121.505707 
	C603.239502,121.817764 602.790588,119.717537 603.285828,118.627419 
	C612.216919,98.968941 626.464233,84.536041 646.017212,75.424843 
	C648.685791,74.181335 651.814148,73.964661 654.654785,72.052002 
	C666.482605,69.368431 678.059509,67.647110 689.884399,67.934166 
	C712.020508,68.471527 732.128723,74.386139 748.645508,89.893326 
	C750.644653,91.770279 752.418152,93.887505 754.636475,95.979782 
	C759.606140,103.242867 764.439514,110.316307 766.896118,118.635086 
	C768.247742,123.212219 769.579163,127.797020 770.805908,132.408646 
	C771.441650,134.798706 770.724243,136.057144 767.863892,136.033905 
	C754.576477,135.926010 741.287415,135.934784 727.999817,136.032959 
	C725.407715,136.052109 723.981018,134.938812 722.963196,132.353271 
	C722.143799,131.231003 721.784119,130.292236 721.236267,129.117355 
	C721.123779,128.839569 721.092224,128.942795 721.132141,128.906479 
	C719.917419,127.805603 718.070312,127.597160 717.140747,126.058502 
	C706.919189,109.139503 671.860352,109.231766 658.376038,123.758446 
	C657.473450,124.730850 656.135254,125.211037 655.196045,126.695084 
	C644.731934,143.518433 644.070984,160.442703 652.856201,177.757126 
	C653.381287,178.791977 653.891235,179.829773 654.401978,181.257080 
	C656.331238,183.780594 658.979065,185.309982 659.851440,188.605728 
	C666.658142,195.214767 675.082275,196.990936 683.664795,197.514053 
	C696.622253,198.303802 708.857178,196.187012 717.769470,185.365128 
	C719.539246,183.216095 721.626648,180.868851 722.215088,178.302872 
	C723.421448,173.041656 726.726807,172.700272 731.100830,172.768631 
	C743.260254,172.958618 755.425598,172.921570 767.586243,172.775436 
	C770.618774,172.738983 771.461182,173.832825 770.791809,176.563553 
	C767.099548,191.625702 761.825623,205.819016 750.493469,217.145248 
	C739.679810,227.953293 726.928528,234.969116 712.015808,237.987595 
	C708.937256,238.610718 706.073364,240.245911 702.411499,240.068283 
	C692.885620,240.351761 683.765869,240.973373 674.635986,240.103058 
	C653.259277,238.065338 634.515137,230.428329 619.531799,214.581161 
	C614.083435,208.818726 609.596130,202.404938 605.724609,195.138519 
	C600.071655,191.295792 600.113342,184.959152 598.049377,179.713196 
	C596.677856,176.227127 597.285156,172.184036 595.411987,167.972244 
	C591.903625,173.574463 587.611023,177.686111 583.487305,181.942032 
	C581.659546,183.828384 581.730103,185.620285 582.908325,187.777527 
	C584.010559,189.795502 585.229248,191.840042 584.967407,194.663605 
	C586.969360,201.823166 591.059692,207.621735 594.181824,213.886703 
	C597.916260,221.380356 601.925964,228.736816 605.861023,236.488617 
	C605.188232,237.617844 604.257629,237.950897 603.226562,237.944107 
	C589.095520,237.851151 574.959900,238.407074 560.394775,237.430084 
	C555.707397,233.801392 554.641846,228.452499 552.139099,224.020782 
	C547.374268,215.583511 543.268127,206.772537 538.947632,198.087341 
	C537.885803,195.952835 536.524780,194.883438 533.942139,194.906998 
	C520.633301,195.028336 507.321686,195.052917 494.013519,194.897125 
	C490.896881,194.860641 490.067780,195.882858 490.109161,198.887589 
	C490.262695,210.032562 490.047546,221.183060 490.241364,232.326782 
	C490.301849,235.805725 489.712616,237.245163 485.705353,237.219116 
	C457.090118,237.033112 428.473053,237.084869 399.856934,237.174957 
	C397.014679,237.183899 395.339630,236.562469 394.285675,233.647766 
	C392.451019,228.574158 390.123932,223.678604 387.644196,218.600449 
	C386.508453,216.138184 384.506500,217.112381 383.052368,217.108200 
	C360.611359,217.043533 338.169983,217.103531 315.729126,217.016083 
	C312.674744,217.004181 310.860840,217.845184 309.763123,220.923965 
	C307.890503,226.175980 305.555176,231.263031 303.208374,236.713684 
	C301.745483,238.070862 300.219238,237.988449 298.724152,237.988968 
	C271.247162,237.998718 243.770172,238.019958 216.293198,237.980988 
	C215.457687,237.979797 214.630234,237.911163 213.379395,237.448853 
	C209.078918,237.737106 208.856842,235.495956 208.863937,232.432419 
	C208.946823,196.706360 208.942825,160.979950 208.836761,125.254005 
	C208.831635,123.523537 210.451080,120.684898 206.465698,120.220032 
	C205.875793,120.366463 205.693176,120.428093 205.460541,120.774490 
	C205.291550,121.484879 205.172592,121.910507 205.027313,122.667831 
	C204.990005,123.571037 204.857986,124.107300 204.397232,124.831566 
	C200.384354,138.544113 196.443710,151.994705 192.656067,165.488251 
	C186.326996,188.035599 180.103531,210.612610 173.812561,233.170700 
	C173.079926,235.797821 171.655975,237.146179 168.513443,237.112305 
	C152.359009,236.938126 136.201584,237.000000 120.045532,237.065948 
	C117.653534,237.075714 116.251938,236.801498 115.520767,233.934601 
	C113.240227,224.992767 110.491028,216.170547 107.927872,207.300705 
	C104.128960,194.154541 100.296181,181.017990 96.551071,167.856522 
	C94.293221,159.921722 92.185608,151.944260 89.989365,143.991806 
	C87.968575,136.674667 85.896553,129.371552 83.907913,122.045761 
	C83.611481,120.953766 83.204300,120.239418 81.995827,120.167641 
	C80.537109,120.081009 79.796158,120.867386 79.683510,122.194977 
	C79.543068,123.850121 79.516945,125.518677 79.516533,127.181450 
	C79.507904,161.992462 79.446747,196.803726 79.593864,231.614120 
	C79.611244,235.724960 78.962959,237.403091 74.258377,237.254440 
	C61.945240,236.865356 49.610123,237.016281 37.287262,237.194214 
	C33.986736,237.241882 32.685081,236.623367 32.707787,232.918152 
	C32.871094,206.269562 32.818493,179.619476 32.756718,152.970047 
	C32.750938,150.476593 33.400623,148.656448 35.261280,146.848526 
	C42.993816,139.335159 50.545979,131.635818 58.137688,123.978317 
	C59.019329,123.089035 60.680363,122.320374 60.023239,120.831787 
	C59.365196,119.341118 57.642429,120.121918 56.416191,120.109726 
	C48.921757,120.035156 41.426273,120.066895 33.462997,120.032089 
	C32.929108,105.015678 32.906044,90.029968 32.756088,75.045517 
	C32.730759,72.514313 33.455265,71.518669 36.127129,71.536209 
	C60.770428,71.697998 85.414421,71.754532 110.512482,71.959030 
	C113.405853,81.840858 115.761284,91.627228 118.307236,101.363770 
	C120.934746,111.412224 123.756409,121.409813 126.477417,131.433929 
	C131.624512,150.395584 136.757889,169.360962 141.905838,188.322388 
	C142.286118,189.723083 142.313644,191.613708 144.326172,191.580093 
	C146.218506,191.548462 146.461441,189.760529 146.845963,188.338272 
	C151.669144,170.498947 156.512863,152.665070 161.280151,134.810776 
	C166.601303,114.882179 171.908813,94.949455 177.071274,74.979492 
	C177.933655,71.643524 180.073212,71.549057 182.712402,71.553017 
	C203.032364,71.583466 223.352402,71.569496 243.672409,71.569382 
	C256.174896,71.569305 256.174866,71.569366 256.174896,83.859367 
	C256.174957,129.995789 256.166443,176.132202 256.205688,222.268585 
	C256.207306,224.174484 255.634567,226.211899 257.416809,228.986420 
	C276.493195,183.799301 295.288330,139.278412 314.073425,94.385780 
	C316.946442,87.581734 319.964691,81.204987 322.642487,74.688347 
	C323.641113,72.258118 324.978912,71.508606 327.490845,71.524857 
	C342.151703,71.619713 356.813843,71.624535 371.474579,71.521538 
	C374.015778,71.503685 375.295532,72.323563 376.289398,74.718063 
	C381.837891,88.085815 387.575439,101.375069 393.243988,114.693008 
	C398.791443,127.726448 404.348999,140.755630 409.873413,153.798828 
	C414.364227,164.401764 418.812653,175.022675 423.567322,185.847137 
	C424.236206,186.303314 424.623962,186.537415 425.331177,186.913132 
	C426.026794,187.348007 426.365387,187.676498 426.871216,188.344955 
	C427.544189,189.530075 427.712738,190.479843 427.713867,191.824738 
	C430.064270,198.345169 433.594788,203.970398 435.733398,210.244171 
	C437.121979,214.317734 439.129944,218.172302 440.861389,221.819275 
	C440.899872,212.892349 440.551514,203.671295 441.076477,194.050766 
	C440.455841,186.915787 440.772461,180.176620 440.821014,173.441696 
	C440.832794,171.806915 440.881195,170.129150 442.361084,168.413116 
	C442.723572,157.247437 442.873444,146.466324 442.896973,135.684937 
	C442.942596,114.765854 442.917206,93.846611 442.942383,72.458527 
	C444.170654,70.762848 445.740936,71.019287 447.209656,71.018486 
	C478.709045,71.001266 510.208435,70.977478 541.707825,71.020248 
	C542.544373,71.021385 543.371826,71.094688 544.616089,71.579994 
z"/>
<path fill="#560C04" opacity="1.000000" stroke="none" 
	d="
M203.445557,397.188904 
	C200.323914,388.165344 197.640945,379.149628 195.028488,370.113556 
	C191.134476,356.644775 187.244080,343.174591 183.457474,329.675446 
	C182.521347,326.338226 182.357025,322.786285 180.724304,319.637817 
	C180.359589,318.934540 180.064026,317.983459 179.018951,318.146027 
	C177.968475,318.309448 177.939453,319.253876 177.902451,320.076538 
	C177.857574,321.074493 177.867477,322.075287 177.867661,323.074829 
	C177.872070,347.399750 177.878372,371.724640 177.913361,396.516357 
	C157.318863,397.116394 136.695267,397.245697 116.071777,397.390320 
	C114.414253,397.401917 113.248024,396.917053 112.631081,395.186035 
	C111.916565,393.181274 110.701378,391.336395 110.132622,389.302155 
	C109.000298,385.252167 106.828613,383.764740 102.379822,383.873230 
	C88.245193,384.217865 74.095512,384.104767 59.954891,383.920135 
	C56.822624,383.879242 55.189831,384.729706 54.150082,387.746429 
	C50.813873,397.426117 50.719482,397.394165 40.522781,397.393463 
	C34.033627,397.393036 27.539360,397.235382 21.057295,397.448944 
	C17.343904,397.571289 17.212305,395.810333 18.313114,393.228516 
	C27.791904,370.997253 37.326885,348.789978 46.818558,326.564178 
	C49.206779,320.971863 51.499352,315.338745 53.830284,309.354797 
	C56.802505,302.205414 60.012890,295.514099 62.645138,288.602661 
	C63.717388,285.787262 64.955070,284.589996 67.947273,284.628571 
	C77.272552,284.748779 86.600609,284.708588 95.927017,284.645966 
	C98.116669,284.631287 99.457764,285.054657 100.436562,287.437378 
	C104.806297,298.074677 109.498039,308.579254 114.032959,319.149170 
	C120.836769,335.007446 127.643684,350.864563 134.375504,366.753418 
	C137.769211,374.763428 141.000580,382.842163 144.454407,391.252777 
	C146.402863,389.611084 145.791977,387.727448 145.796814,386.109833 
	C145.842194,370.953888 145.884262,355.797302 145.775345,340.641968 
	C145.752350,337.444183 146.475479,335.023376 149.006470,332.784271 
	C153.202118,329.072479 156.981979,324.891846 160.959778,320.931580 
	C161.675125,320.219391 162.629456,319.484253 161.939148,318.477722 
	C161.603134,317.987762 160.501801,317.864685 159.741806,317.850555 
	C156.245392,317.785461 152.739731,317.675903 149.252060,317.860168 
	C146.568741,318.001892 145.781235,316.861206 145.802292,314.368866 
	C145.876831,305.542358 145.921844,296.713257 145.775223,287.888519 
	C145.728348,285.067383 147.011948,284.632996 149.387527,284.642883 
	C164.709900,284.706635 180.032776,284.701385 195.355209,284.644012 
	C197.624146,284.635529 198.838181,285.100494 199.495483,287.675751 
	C202.146439,298.061707 205.174423,308.350739 207.986343,318.696442 
	C211.968292,333.346771 215.861938,348.021088 219.861603,362.666504 
	C220.206146,363.928131 219.727982,365.979187 222.038513,365.985168 
	C224.034698,365.990295 223.724579,364.256042 224.036896,363.082367 
	C228.409943,346.649384 232.710587,330.196991 237.127121,313.775757 
	C239.567032,304.703857 242.190384,295.681335 244.652802,286.272339 
	C244.014359,283.890656 245.710892,284.125397 246.640518,284.117065 
	C263.191895,283.968140 279.744049,283.880737 296.295410,284.137299 
	C296.971771,284.147797 297.542938,284.535797 298.209625,285.485840 
	C298.347351,293.320160 298.296356,300.690216 298.334229,308.519958 
	C298.355499,335.637024 298.283264,362.294342 298.243561,388.951721 
	C298.242432,389.715668 298.586792,390.480133 299.056488,392.438599 
	C303.627563,381.731079 307.745850,372.112976 311.840973,362.485046 
	C318.341187,347.202606 324.851379,331.924316 331.307190,316.623138 
	C334.898224,308.111847 338.572510,299.627747 341.844910,290.993286 
	C343.469208,286.707458 345.286987,284.180847 350.598328,284.530914 
	C358.894745,285.077789 367.255005,284.759857 375.585510,284.633148 
	C378.656158,284.586426 380.114166,285.571136 381.381378,288.649536 
	C388.777771,306.616913 396.579987,324.416870 404.181335,342.300446 
	C409.523865,354.869781 414.757416,367.485382 420.057190,380.072968 
	C421.200317,382.787933 422.418549,385.471313 423.743195,388.490662 
	C426.282715,386.601105 425.557770,384.044708 425.281616,382.078064 
	C424.014832,373.056915 427.222961,366.807709 434.332062,360.751953 
	C450.452881,347.019806 465.627625,332.176727 481.173645,317.770905 
	C482.014313,316.991882 482.653229,315.986969 483.523987,315.250214 
	C485.481903,313.593597 484.218140,313.092041 482.668274,312.875702 
	C481.358276,312.692902 480.007568,312.784393 478.674896,312.784027 
	C463.343140,312.779755 448.009308,312.639923 432.680939,312.866821 
	C428.061920,312.935181 425.982697,311.829590 426.342072,306.762268 
	C426.765503,300.792847 426.551636,294.767731 426.397339,288.772339 
	C426.319733,285.757690 427.428375,284.635712 430.453735,284.641998 
	C460.950409,284.705200 491.447357,284.702972 521.944092,284.642487 
	C524.477539,284.637482 525.515198,285.369659 525.467224,288.039734 
	C525.335449,295.369904 525.393677,302.704254 525.443237,310.036469 
	C525.459106,312.384369 524.460205,313.867584 522.689758,315.492432 
	C504.349182,332.324402 486.150879,349.311371 467.893677,366.234406 
	C467.295593,366.788788 466.491943,367.121399 465.772583,367.564545 
	C467.687103,369.930145 469.658813,369.075653 471.326691,369.083466 
	C487.491333,369.159027 503.658691,369.275970 519.819946,369.030151 
	C524.065186,368.965607 525.822449,369.861328 525.524292,374.452881 
	C525.136292,380.427063 525.198364,386.457550 525.511169,392.440582 
	C525.717163,396.380493 524.463318,397.509918 520.506592,397.476471 
	C498.677063,397.292084 476.845184,397.388641 455.014099,397.388763 
	C437.349243,397.388855 419.684418,397.388885 402.019562,397.388794 
	C393.293365,397.388733 392.815460,397.533813 390.277344,389.182007 
	C388.888275,384.611145 386.719482,383.836090 382.545776,383.911774 
	C369.551392,384.147430 356.550018,383.998047 343.551361,383.998199 
	C335.128906,383.998322 335.128906,383.998505 332.882385,393.059814 
	C332.676147,394.209167 332.100647,394.785645 331.591797,395.735535 
	C331.323212,396.140411 331.201752,396.289337 331.041046,396.723816 
	C329.744507,398.072083 328.218140,397.987885 326.723175,397.989044 
	C307.738892,398.003967 288.754608,398.011444 269.770325,397.985413 
	C268.771454,397.984039 267.768555,397.966370 266.410889,397.287231 
	C266.005249,380.974518 266.014160,364.933624 265.874451,348.444702 
	C263.907410,346.136505 263.806366,343.925629 264.249329,341.513306 
	C265.305206,335.762665 264.695526,329.975830 264.445496,324.148041 
	C260.220703,335.484161 258.527863,347.654510 252.484619,358.692413 
	C248.839462,370.191132 245.491867,381.414398 242.751144,392.812988 
	C242.041962,395.762482 240.532776,397.462616 236.866531,397.359192 
	C225.890076,397.049500 214.900314,397.210419 203.445557,397.188904 
z"/>
<path fill="#560C04" opacity="1.000000" stroke="none" 
	d="
M918.304993,399.409271 
	C908.323303,397.278473 898.907349,394.774750 891.512817,387.138763 
	C891.133606,390.260284 893.000244,392.120239 894.058594,394.643616 
	C894.922241,397.443787 893.265259,397.945404 891.496826,397.925903 
	C881.605896,397.817169 871.703247,398.532410 861.414062,397.267639 
	C861.003723,396.989990 860.948181,396.499878 860.840332,396.278107 
	C859.653748,394.629578 859.464050,392.776062 858.305664,391.021790 
	C858.086731,390.340424 858.018677,389.952423 857.837524,389.290466 
	C856.694702,387.727600 856.596863,385.959015 855.244568,384.469940 
	C838.836365,384.158203 822.686890,384.132111 806.539185,383.954926 
	C803.374451,383.920166 802.767639,386.114105 801.915344,388.248383 
	C798.266846,397.384460 798.276855,397.388489 788.710449,397.388428 
	C768.554443,397.388275 748.398132,397.335846 728.242737,397.442474 
	C725.107178,397.459076 723.326538,396.703674 721.767090,393.615417 
	C711.189148,372.668060 700.316589,351.869476 689.535645,331.024658 
	C688.398193,328.825256 687.239258,326.636902 686.086548,324.445404 
	C685.546814,323.419403 685.077942,322.065033 683.666687,322.309540 
	C681.764221,322.639221 682.371399,324.357880 682.366577,325.563263 
	C682.341064,331.892853 682.417175,338.222778 682.421692,344.552582 
	C682.432983,360.544128 682.290955,376.537567 682.518066,392.525909 
	C682.575500,396.569366 681.267761,397.611176 677.422180,397.468994 
	C669.936340,397.192200 662.431030,397.285370 654.938110,397.436646 
	C651.925110,397.497467 650.468323,396.906067 650.500244,393.391113 
	C650.663879,375.402069 650.623413,357.410675 650.543030,339.420593 
	C650.532349,337.026855 651.397034,335.350281 653.049011,333.779999 
	C658.080872,328.997040 663.043579,324.141357 668.857727,318.516205 
	C663.333557,317.342804 658.920105,317.803711 654.588684,317.889191 
	C651.498474,317.950165 650.496826,316.825592 650.536316,313.855011 
	C650.649292,305.360992 650.661560,296.863159 650.526550,288.369781 
	C650.482239,285.581909 651.374512,284.598389 654.223938,284.628601 
	C666.049683,284.754028 677.877808,284.727875 689.704285,284.641357 
	C691.830200,284.625793 692.883484,285.386749 693.852905,287.279785 
	C703.591553,306.296631 713.321655,325.320282 723.349182,344.185242 
	C726.174683,349.500824 728.070618,355.396667 732.664612,359.859253 
	C733.159668,359.716064 733.310181,359.628021 733.535522,359.289307 
	C733.658386,334.978577 733.706360,310.918457 733.671997,286.391663 
	C734.014038,284.322113 735.290100,284.027344 736.659241,284.047333 
	C746.165161,284.186188 755.680969,283.524017 765.554565,284.709686 
	C765.983643,292.701111 766.035767,300.375641 766.202515,308.503418 
	C768.597046,311.228790 768.190247,314.156738 768.196167,316.944916 
	C768.242615,338.832275 768.195251,360.719849 768.228882,383.653687 
	C774.548706,368.176544 780.965576,353.840820 786.913513,339.302856 
	C788.155884,336.266327 789.177979,333.066467 791.970337,330.475128 
	C792.314087,330.280670 792.113831,330.135986 792.199158,330.225311 
	C793.091248,328.745361 793.521301,327.005402 794.675781,325.241699 
	C798.846802,315.938812 802.842041,306.907440 806.751282,297.839020 
	C808.055847,294.812744 809.041504,291.648621 810.355042,288.626709 
	C811.532227,285.918304 813.237061,284.410095 816.741638,284.552155 
	C825.556763,284.909546 834.399292,284.806030 843.224060,284.600281 
	C846.461670,284.524750 847.930664,285.860382 849.111206,288.678223 
	C856.800110,307.030487 864.653076,325.313934 872.409241,343.638092 
	C875.763733,351.563141 879.015686,359.531555 882.920959,367.801849 
	C881.877869,360.291077 886.796265,361.673615 890.745728,361.677094 
	C894.577454,361.680450 898.409424,361.650513 902.240845,361.684357 
	C907.666382,361.732300 913.034424,360.401062 916.058960,367.783600 
	C917.936218,372.365631 924.339844,373.001251 929.136230,373.533478 
	C936.534485,374.354431 944.029297,374.459290 951.334595,371.974518 
	C955.796692,370.456787 957.791382,367.440552 957.738403,363.052887 
	C957.687195,358.819275 955.638672,355.580750 951.199036,355.058075 
	C941.632019,353.931793 932.034851,353.021698 922.431274,352.259613 
	C914.085022,351.597382 906.101501,350.033997 898.789307,345.622162 
	C890.176880,340.425873 885.878845,332.670074 884.947327,322.949585 
	C883.789673,310.869812 885.735168,299.774048 896.248962,291.905670 
	C902.203613,287.449219 909.129150,285.427368 916.300781,283.891327 
	C926.328918,281.743530 936.454712,281.837097 946.601990,282.069275 
	C955.504028,282.272980 963.992126,284.657043 971.923767,288.359192 
	C981.024536,292.607147 985.944336,300.511139 988.006836,310.220886 
	C990.295959,320.997559 990.281860,321.000519 979.078491,321.000519 
	C975.913147,321.000519 972.727417,320.770630 969.586914,321.050110 
	C963.692749,321.574646 958.879639,321.179535 956.372070,314.286041 
	C955.161682,310.958740 950.948181,309.496155 947.187622,309.161469 
	C940.210205,308.540527 933.186401,308.427246 926.234558,309.279022 
	C922.685242,309.713898 918.988220,310.738617 917.832642,314.960388 
	C916.249634,320.743866 919.145935,325.132935 925.288330,325.828918 
	C930.906860,326.465515 936.578552,326.622925 942.222900,327.044220 
	C951.820068,327.760620 961.354797,328.775421 970.562866,331.884186 
	C976.636108,333.934631 981.658447,337.389008 986.141235,342.251526 
	C991.000244,351.503723 992.299622,361.110535 990.367676,371.216522 
	C988.387268,381.576202 982.309021,388.603241 973.089417,393.224213 
	C962.301636,398.631195 950.631348,399.600403 938.858032,399.988373 
	C935.208496,400.108643 931.551941,400.013763 927.443115,400.139648 
	C925.928223,400.092041 924.868774,399.922211 923.414368,399.850342 
	C921.544983,399.942413 920.049255,400.205994 918.304993,399.409271 
z"/>
<path fill="#560D04" opacity="1.000000" stroke="none" 
	d="
M577.526367,282.224731 
	C590.703186,281.319702 603.176392,282.241821 615.027222,287.479767 
	C630.715332,294.413757 641.061829,306.172363 645.933533,322.540558 
	C649.975708,336.121460 649.617920,349.860016 644.890137,363.151306 
	C640.134460,376.521149 631.171448,386.615143 618.448364,393.170563 
	C603.277222,400.987396 586.987854,401.739349 570.843567,398.632141 
	C548.830872,394.395477 531.381775,378.392181 526.632996,354.642426 
	C523.017029,336.558075 525.770325,320.102661 536.578064,305.154114 
	C544.715271,293.899231 555.773560,286.992493 569.312622,284.009979 
	C571.903442,283.439270 574.488159,282.841248 577.526367,282.224731 
z"/>






<path fill="#560C04" opacity="1.000000" stroke="none" 
	d="
M825.104248,166.374146 
	C825.036499,158.642685 825.074646,151.285324 825.046387,143.463226 
	C827.742981,129.180176 831.227234,115.715431 839.691956,103.955704 
	C849.480774,90.356514 861.853210,80.391510 877.517883,74.333092 
	C896.392639,67.033112 916.042603,65.992424 935.446655,69.488472 
	C966.589539,75.099510 989.366577,92.332428 1000.272278,122.914345 
	C1011.906311,155.538315 1005.235840,197.013428 976.356262,220.808838 
	C965.714294,229.577301 953.677490,235.101151 940.269287,238.181564 
	C926.426758,241.361771 912.400696,241.600113 898.607300,239.708801 
	C869.175537,235.673279 846.730042,220.998795 833.237854,193.756317 
	C828.976135,185.151321 827.520752,175.856247 825.104248,166.374146 
z"/>
<path fill="#560B03" opacity="1.000000" stroke="none" 
	d="
M774.358154,76.438347 
	C774.695923,72.674324 776.292786,71.434380 779.900513,71.512978 
	C792.391052,71.785133 804.895203,71.804008 817.385010,71.518990 
	C821.530823,71.424370 822.248657,72.890381 822.240417,76.633064 
	C822.123291,129.784012 822.150696,182.935272 822.094360,236.554413 
	C822.045654,237.022385 822.005981,236.999619 822.013672,237.020981 
	C820.906250,237.943497 819.574097,237.985901 818.236633,237.987335 
	C804.614624,238.001984 790.992615,238.022125 777.370605,237.974854 
	C776.370728,237.971390 775.373230,237.901260 774.363037,236.828979 
	C774.341248,229.702560 774.558594,223.054733 774.562866,216.406769 
	C774.576660,194.755585 774.512634,173.104370 774.346924,151.041046 
	C774.321289,149.726654 774.971741,149.144821 775.686157,148.237320 
	C784.705627,139.992126 792.996826,131.464539 801.294373,122.492180 
	C800.086487,120.267593 798.089966,121.125740 796.373718,121.027771 
	C789.445007,120.632263 782.474609,121.691025 775.286377,120.181259 
	C774.030762,107.727432 774.848145,95.521667 774.582520,83.328453 
	C774.535767,81.184319 774.513428,79.039650 774.358154,76.438347 
z"/>




<path fill="#560D04" opacity="1.000000" stroke="none" 
	d="
M387.745911,27.758892 
	C383.392303,36.511311 379.177521,44.913284 375.103363,53.382896 
	C374.358643,54.931038 373.203522,55.133827 371.886688,55.137455 
	C359.396973,55.171906 346.906952,55.130611 334.417389,55.186188 
	C330.608978,55.203133 331.892792,53.073177 332.746521,51.325455 
	C336.151733,44.354450 339.644104,37.425846 343.132355,30.495703 
	C344.469543,27.839157 346.318451,25.352386 347.163513,22.555405 
	C348.630920,17.698683 351.558868,16.410194 356.417633,16.563063 
	C367.397858,16.908527 378.396881,16.727936 389.387238,16.639277 
	C392.652649,16.612934 393.875488,17.124613 391.552521,20.385656 
	C390.036499,22.513857 389.118774,25.068226 387.745911,27.758892 
z"/>
</svg>